<svg width="28" height="36" viewBox="0 0 28 36" fill="none" xmlns="http://www.w3.org/2000/svg">
<g id="Account">
<path id="Vector 73" d="M7 22.0469L1.49613 25.2575C1.18891 25.4367 1 25.7656 1 26.1212V31.1848C1 31.4188 1.08202 31.6453 1.23178 31.825L3.20015 34.1871C3.39015 34.4151 3.6716 34.5469 3.96837 34.5469H24.0316C24.3284 34.5469 24.6099 34.4151 24.7998 34.1871L26.7682 31.825C26.918 31.6453 27 31.4188 27 31.1848V26.0675C27 25.7412 26.8408 25.4354 26.5735 25.2483L22 22.0469" stroke="#DBDBDB" stroke-width="2" stroke-linecap="round"/>
<path id="Ellipse 159" d="M14 19.5469C18.9706 19.5469 23 15.5174 23 10.5469C23 5.57631 18.9706 1.54688 14 1.54688C9.02944 1.54688 5 5.57631 5 10.5469C5 15.5174 9.02944 19.5469 14 19.5469Z" stroke="#DBDBDB" stroke-width="2"/>
</g>
</svg>
