<svg width="19" height="14" viewBox="0 0 19 14" fill="none" xmlns="http://www.w3.org/2000/svg">
<path id="Vector" d="M3.20815 10.4869C3.9018 11.3867 4.84575 11.8894 5.90762 12.2315C5.56946 12.654 5.24287 13.0666 4.90876 13.4722C4.85944 13.5104 4.7975 13.5286 4.73534 13.5231C3.4463 13.5 2.24975 13.1527 1.19193 12.4153C0.280348 11.7796 -0.0890237 10.862 0.0179148 9.75708C0.197461 7.95319 0.613962 6.18081 1.25667 4.4857C2.11911 2.1846 4.26713 0.605264 6.71977 0.504136C6.82845 0.499513 6.94001 0.565391 7.04348 0.635314C7.2069 0.82941 7.2069 0.829887 7.2069 0.829887C7.2069 0.829887 7.18338 0.801552 11.9563 0.776326C11.9563 0.776326 12.18 0.502403 12.3858 0.522629C14.9523 0.771693 16.7471 2.08289 17.7269 4.46143C18.4061 6.11184 18.8055 7.84084 18.9819 9.61665C19.0975 10.7724 18.6599 11.7039 17.6917 12.3454C16.6263 13.0515 15.4373 13.4006 14.1592 13.4399C14.0994 13.4469 14.0387 13.4379 13.9835 13.4139C13.9282 13.3898 13.8804 13.3515 13.8448 13.3029C13.5511 12.9296 13.2465 12.565 12.9199 12.1668C14.0274 11.8172 15.0055 11.3225 15.7275 10.4141C15.6644 10.4494 15.6009 10.4829 15.5396 10.5199C14.1806 11.3318 12.7361 11.9068 11.1545 12.1044C9.7233 12.2853 8.31402 12.1553 6.92209 11.8103C5.67293 11.5011 4.45384 11.1029 3.30006 10.5239C3.27173 10.5089 3.23936 10.4991 3.20815 10.4869ZM14.0939 7.94717C14.0939 7.00639 13.339 6.2095 12.4401 6.20141C11.5413 6.19332 10.7603 7.00292 10.7638 7.92752C10.7678 8.86195 11.5389 9.66115 12.4332 9.66115C13.3274 9.66115 14.0939 8.86888 14.0939 7.94717ZM4.81222 7.91423C4.81222 8.85386 5.56368 9.6519 6.46197 9.66115C7.34927 9.6704 8.1383 8.85732 8.1383 7.93735C8.1383 7.01737 7.3614 6.19968 6.47064 6.20372C5.57987 6.20777 4.81569 6.9931 4.81396 7.91423H4.81222Z" fill="#5D6AF2"/>
</svg>
