<svg width="30" height="30" viewBox="0 0 30 30" fill="none" xmlns="http://www.w3.org/2000/svg">
<g id="octicon:flame-16" clip-path="url(#clip0_697_3486)">
<path id="Vector" d="M17.8744 1.41187V1.40999C18.2812 5.88187 20.6175 8.20875 22.8487 10.4287C25.0688 12.6375 27.1838 14.7431 27.1838 18.75C27.1838 25.3125 21.5588 30 14.9963 30C8.43375 30 2.8125 25.335 2.8125 18.75C2.8125 16.3162 3.8175 13.95 5.48438 12.5887C6.18937 12.0112 7.10063 12.5887 7.425 13.44C8.3625 15.9131 10.4644 15.7856 11.25 15C11.7788 14.4712 11.8894 13.4794 11.2444 12.1875C8.1375 5.97562 13.1906 1.40624 16.4438 0.273745C17.175 0.0168699 17.805 0.637495 17.8744 1.41187ZM14.9963 27.1875C20.3062 27.1875 24.3713 23.475 24.3713 18.75C24.3713 16.0069 23.0963 14.6437 20.8481 12.4069L20.7806 12.3375C18.8813 10.4475 16.4681 8.04375 15.4669 4.02374C14.8631 4.50375 14.2856 5.10937 13.8469 5.81062C13.0369 7.11562 12.6825 8.77312 13.7606 10.9294C14.6475 12.705 15.0169 15.2119 13.2394 16.9894C12.0956 18.1331 10.3425 18.5644 8.73375 18.1762C7.68911 17.9198 6.74892 17.3476 6.04125 16.5375C5.76405 17.2421 5.62282 17.9928 5.625 18.75C5.625 23.4937 9.6825 27.1875 14.9963 27.1875Z" fill="#DBDBDB"/>
</g>
<defs>
<clipPath id="clip0_697_3486">
<rect width="30" height="30" fill="white"/>
</clipPath>
</defs>
</svg>
