<svg width="35" height="22" viewBox="0 0 35 22" fill="none" xmlns="http://www.w3.org/2000/svg">
<g id="mdi:controller-classic-outline">
<path id="Vector" d="M25.8125 3.5625C27.9398 3.5625 29.9799 4.40755 31.4841 5.91175C32.9883 7.41595 33.8333 9.45608 33.8333 11.5833C33.8333 13.7106 32.9883 15.7507 31.4841 17.2549C29.9799 18.7591 27.9398 19.6042 25.8125 19.6042C23.3188 19.6042 21.1021 18.4667 19.6292 16.6875H15.9542C14.4813 18.4667 12.2646 19.6042 9.77083 19.6042C7.64358 19.6042 5.60345 18.7591 4.09925 17.2549C2.59505 15.7507 1.75 13.7106 1.75 11.5833C1.75 9.45608 2.59505 7.41595 4.09925 5.91175C5.60345 4.40755 7.64358 3.5625 9.77083 3.5625H25.8125ZM9.77083 5.18187C8.41712 5.18187 6.64472 6.10528 5.6875 7.0625C4.73028 8.01972 3.5 9.0938 3.66217 11.5833C3.5 14.0625 4.73028 15.2928 5.6875 16.25C6.64472 17.2072 8.41712 17.5625 9.77083 17.5625C11.8125 17.5625 13.6208 16.5854 14.4375 14.8646H21C21.8167 16.5854 23.7083 17.5625 25.75 17.5625C27.1037 17.5625 29.2303 17.2072 30.1875 16.25C31.1447 15.2928 32.1897 14.385 32.1897 11.5833C32.1897 9.0938 31.1447 8.01972 30.1875 7.0625C29.2303 6.10528 27.1662 5.18187 25.8125 5.18187H9.77083ZM8.67708 8.30208H10.8646V10.4896H13.0521V12.6771H10.8646V14.8646H8.67708V12.6771H6.48958V10.4896H8.67708V8.30208ZM24.7188 11.5833C25.1055 11.5833 25.4765 11.737 25.75 12.0105C26.0234 12.284 26.1771 12.6549 26.1771 13.0417C26.1771 13.4284 26.0234 13.7994 25.75 14.0729C25.4765 14.3464 25.1055 14.5 24.7188 14.5C24.332 14.5 23.961 14.3464 23.6876 14.0729C23.4141 13.7994 23.2604 13.4284 23.2604 13.0417C23.2604 12.6549 23.4141 12.284 23.6876 12.0105C23.961 11.737 24.332 11.5833 24.7188 11.5833ZM27.6354 8.66667C28.0222 8.66667 28.3931 8.82031 28.6666 9.0938C28.9401 9.36729 29.0938 9.73823 29.0938 10.125C29.0938 10.5118 28.9401 10.8827 28.6666 11.1562C28.3931 11.4297 28.0222 11.5833 27.6354 11.5833C27.2486 11.5833 26.8777 11.4297 26.6042 11.1562C26.3307 10.8827 26.1771 10.5118 26.1771 10.125C26.1771 9.73823 26.3307 9.36729 26.6042 9.0938C26.8777 8.82031 27.2486 8.66667 27.6354 8.66667Z" fill="url(#paint0_linear_720_2311)"/>
</g>
<defs>
<linearGradient id="paint0_linear_720_2311" x1="1.75" y1="3.5625" x2="34.125" y2="19.3125" gradientUnits="userSpaceOnUse">
<stop stop-color="#C517D1"/>
<stop offset="1" stop-color="#2592D9"/>
</linearGradient>
</defs>
</svg>
