<svg width="48" height="48" viewBox="0 0 48 48" fill="none" xmlns="http://www.w3.org/2000/svg">
<g id="tabler:heart-handshake">
<g id="Group">
<path id="Vector" d="M38.9986 25.1444L23.9986 40.0004L8.99865 25.1444C8.00926 24.1816 7.22993 23.0244 6.70974 21.7456C6.18956 20.4669 5.93977 19.0943 5.97612 17.7142C6.01248 16.3342 6.33417 14.9766 6.92096 13.727C7.50775 12.4774 8.34692 11.3629 9.38562 10.4535C10.4243 9.54416 11.6401 8.85973 12.9563 8.44332C14.2725 8.0269 15.6607 7.88752 17.0334 8.03396C18.4061 8.18039 19.7336 8.60947 20.9324 9.29417C22.1312 9.97887 23.1751 10.9044 23.9986 12.0124C24.8257 10.9124 25.8709 9.99499 27.0688 9.31756C28.2668 8.64013 29.5916 8.21725 30.9605 8.07539C32.3294 7.93353 33.7128 8.07575 35.0242 8.49314C36.3356 8.91052 37.5467 9.5941 38.5818 10.5011C39.6168 11.4081 40.4535 12.5189 41.0395 13.7641C41.6255 15.0094 41.9481 16.3621 41.9873 17.7378C42.0264 19.1134 41.7812 20.4823 41.2669 21.7589C40.7527 23.0354 39.9805 24.192 38.9986 25.1564" stroke="#FFB74B" stroke-width="2" stroke-linecap="round" stroke-linejoin="round"/>
<path id="Vector_2" d="M23.9997 12L17.4137 18.586C17.0388 18.9611 16.8281 19.4697 16.8281 20C16.8281 20.5303 17.0388 21.0389 17.4137 21.414L18.4997 22.5C19.8797 23.88 22.1197 23.88 23.4997 22.5L25.4997 20.5C26.6932 19.3065 28.3119 18.6361 29.9997 18.6361C31.6875 18.6361 33.3062 19.3065 34.4997 20.5L38.9997 25M24.9997 31L28.9997 35M29.9997 26L33.9997 30" stroke="#FFB74B" stroke-width="2" stroke-linecap="round" stroke-linejoin="round"/>
</g>
</g>
</svg>
