<svg width="100" height="33" viewBox="0 0 100 33" fill="none" xmlns="http://www.w3.org/2000/svg">
<path id="Line" d="M99 4.60007C97.023 5.5948 95.6242 5.93208 93.476 5.93208C91.3278 5.93208 90.2025 6.90081 87.952 6.90081C85.7785 6.90081 84.8059 4.99021 82.6326 4.96334C80.3827 4.93553 79.2568 6.90081 77.1086 6.90081C74.1955 6.90081 74.497 0.902457 71.5846 0.967319C68.7307 1.03088 68.7203 5.93208 66.2651 6.90081C63.8862 7.83948 63.2487 10.7757 60.7411 10.7757C58.1837 10.7757 57.8603 6.83557 55.4217 6.90081C52.5886 6.97661 52.7316 12.471 49.8977 12.471C47.0638 12.471 47.2076 6.90081 44.3737 6.90081C40.5887 6.90081 41.657 14.94 39.0543 19.4944C36.7015 23.6115 37.2129 31.9668 33.5303 31.9668C30.666 31.9668 31.2798 30.1504 28.2109 29.0606C24.7055 27.8158 25.6534 22.2795 22.6868 20.0998C20.1423 18.2302 20.0271 13.803 17.1628 13.803C13.9607 13.803 14.5303 20.4324 11.8434 21.1896C9.6952 21.7951 9.20011 20.4631 6.31942 20.4631C3.35282 20.4631 1.77559 23.6824 1 27.2442" stroke="#00C68A" stroke-width="0.75212"/>
</svg>
