<svg width="126" height="126" viewBox="0 0 126 126" fill="none" xmlns="http://www.w3.org/2000/svg">
<g id="Profile">
<g clip-path="url(#clip0_787_16221)">
<rect x="0.5" y="0.5" width="125" height="125" rx="62.5" fill="url(#paint0_linear_787_16221)" fill-opacity="0.4"/>
<path id="Vector" d="M1.19531 62.9999C1.19531 71.1163 2.79396 79.1533 5.89998 86.6519C9.006 94.1505 13.5586 100.964 19.2977 106.703C25.0369 112.442 31.8503 116.995 39.3489 120.101C46.8475 123.207 54.8844 124.805 63.0009 124.805C71.1173 124.805 79.1542 123.207 86.6528 120.101C94.1514 116.995 100.965 112.442 106.704 106.703C112.443 100.964 116.996 94.1505 120.102 86.6519C123.208 79.1533 124.806 71.1163 124.806 62.9999C124.806 54.8835 123.208 46.8465 120.102 39.3479C116.996 31.8493 112.443 25.0359 106.704 19.2968C100.965 13.5576 94.1514 9.00503 86.6528 5.899C79.1542 2.79298 71.1173 1.19434 63.0009 1.19434C54.8844 1.19434 46.8475 2.79298 39.3489 5.899C31.8503 9.00503 25.0369 13.5576 19.2977 19.2968C13.5586 25.0359 9.006 31.8493 5.89998 39.3479C2.79396 46.8465 1.19531 54.8835 1.19531 62.9999Z" stroke="#E8E1E1" stroke-width="1.83333" stroke-linecap="round" stroke-linejoin="round"/>
<path id="Vector_2" d="M42.168 49.8059C42.168 55.147 44.3629 60.2695 48.2699 64.0462C52.1769 67.823 57.476 69.9448 63.0013 69.9448C68.5266 69.9448 73.8257 67.823 77.7327 64.0462C81.6397 60.2695 83.8346 55.147 83.8346 49.8059C83.8346 44.4647 81.6397 39.3423 77.7327 35.5655C73.8257 31.7888 68.5266 29.667 63.0013 29.667C57.476 29.667 52.1769 31.7888 48.2699 35.5655C44.3629 39.3423 42.168 44.4647 42.168 49.8059Z" stroke="#E8E1E1" stroke-width="1.83333" stroke-linecap="round" stroke-linejoin="round"/>
<path id="Vector_3" d="M23.418 108.794C25.0976 103.384 28.5345 98.6416 33.2188 95.2711C37.9031 91.9007 43.5852 90.0813 49.4223 90.083H76.5667C82.4113 90.0811 88.1005 91.9048 92.7881 95.283C97.4758 98.6612 100.912 103.413 102.585 108.833" stroke="#E8E1E1" stroke-width="1.83333" stroke-linecap="round" stroke-linejoin="round"/>
</g>
</g>
<defs>
<linearGradient id="paint0_linear_787_16221" x1="0.5" y1="0.5" x2="152.362" y2="49.6377" gradientUnits="userSpaceOnUse">
<stop stop-color="#C517D1"/>
<stop offset="1" stop-color="#2592D9"/>
</linearGradient>
<clipPath id="clip0_787_16221">
<rect x="0.5" y="0.5" width="125" height="125" rx="62.5" fill="white"/>
</clipPath>
</defs>
</svg>
