<svg width="32" height="31" viewBox="0 0 32 31" fill="none" xmlns="http://www.w3.org/2000/svg">
<g id="Frame" clip-path="url(#clip0_720_4772)">
<path id="Vector" d="M16 7.75033C16 8.43547 16.281 9.09255 16.781 9.57702C17.2811 10.0615 17.9594 10.3337 18.6667 10.3337C19.3739 10.3337 20.0522 10.0615 20.5523 9.57702C21.0524 9.09255 21.3333 8.43547 21.3333 7.75033C21.3333 7.06518 21.0524 6.4081 20.5523 5.92363C20.0522 5.43916 19.3739 5.16699 18.6667 5.16699C17.9594 5.16699 17.2811 5.43916 16.781 5.92363C16.281 6.4081 16 7.06518 16 7.75033Z" stroke="#E8E1E1" stroke-width="1.83333" stroke-linecap="round" stroke-linejoin="round"/>
<path id="Vector_2" d="M5.33398 7.75H16.0007" stroke="#E8E1E1" stroke-width="1.83333" stroke-linecap="round" stroke-linejoin="round"/>
<path id="Vector_3" d="M21.334 7.75H26.6673" stroke="#E8E1E1" stroke-width="1.83333" stroke-linecap="round" stroke-linejoin="round"/>
<path id="Vector_4" d="M8 15.5003C8 16.1855 8.28095 16.8425 8.78105 17.327C9.28115 17.8115 9.95942 18.0837 10.6667 18.0837C11.3739 18.0837 12.0522 17.8115 12.5523 17.327C13.0524 16.8425 13.3333 16.1855 13.3333 15.5003C13.3333 14.8152 13.0524 14.1581 12.5523 13.6736C12.0522 13.1892 11.3739 12.917 10.6667 12.917C9.95942 12.917 9.28115 13.1892 8.78105 13.6736C8.28095 14.1581 8 14.8152 8 15.5003Z" stroke="#E8E1E1" stroke-width="1.83333" stroke-linecap="round" stroke-linejoin="round"/>
<path id="Vector_5" d="M5.33398 15.5H8.00065" stroke="#E8E1E1" stroke-width="1.83333" stroke-linecap="round" stroke-linejoin="round"/>
<path id="Vector_6" d="M13.334 15.5H26.6673" stroke="#E8E1E1" stroke-width="1.83333" stroke-linecap="round" stroke-linejoin="round"/>
<path id="Vector_7" d="M20 23.2503C20 23.9355 20.281 24.5925 20.781 25.077C21.2811 25.5615 21.9594 25.8337 22.6667 25.8337C23.3739 25.8337 24.0522 25.5615 24.5523 25.077C25.0524 24.5925 25.3333 23.9355 25.3333 23.2503C25.3333 22.5652 25.0524 21.9081 24.5523 21.4236C24.0522 20.9392 23.3739 20.667 22.6667 20.667C21.9594 20.667 21.2811 20.9392 20.781 21.4236C20.281 21.9081 20 22.5652 20 23.2503Z" stroke="#E8E1E1" stroke-width="1.83333" stroke-linecap="round" stroke-linejoin="round"/>
<path id="Vector_8" d="M5.33398 23.25H20.0007" stroke="#E8E1E1" stroke-width="1.83333" stroke-linecap="round" stroke-linejoin="round"/>
<path id="Vector_9" d="M25.334 23.25H26.6673" stroke="#E8E1E1" stroke-width="1.83333" stroke-linecap="round" stroke-linejoin="round"/>
</g>
<defs>
<clipPath id="clip0_720_4772">
<rect width="32" height="31" fill="white"/>
</clipPath>
</defs>
</svg>
