<svg width="24" height="24" viewBox="0 0 24 24" fill="none" xmlns="http://www.w3.org/2000/svg">
<g id="tabler:man">
<path id="Vector" d="M8 6.5C8 7.69347 8.42143 8.83807 9.17157 9.68198C9.92172 10.5259 10.9391 11 12 11C13.0609 11 14.0783 10.5259 14.8284 9.68198C15.5786 8.83807 16 7.69347 16 6.5C16 5.30653 15.5786 4.16193 14.8284 3.31802C14.0783 2.47411 13.0609 2 12 2C10.9391 2 9.92172 2.47411 9.17157 3.31802C8.42143 4.16193 8 5.30653 8 6.5Z" stroke="#E8E1E1" stroke-width="1.83333" stroke-linecap="round" stroke-linejoin="round"/>
<path id="Vector_2" d="M3 19.9916C3.38189 18.8374 4.16333 17.8258 5.22839 17.1068C6.29345 16.3878 7.5854 15.9996 8.91257 16H15.0843C16.4132 15.9996 17.7068 16.3886 18.7726 17.1093C19.8384 17.83 20.6196 18.8438 21 20" stroke="#E8E1E1" stroke-width="1.83333" stroke-linecap="round" stroke-linejoin="round"/>
</g>
</svg>
