<svg width="32" height="32" viewBox="0 0 32 32" fill="none" xmlns="http://www.w3.org/2000/svg">
<g id="tabler:folders">
<g id="Group">
<path id="Vector" d="M11.9987 5.33301H15.9987L18.6654 7.99967H25.332C26.0393 7.99967 26.7176 8.28063 27.2176 8.78072C27.7177 9.28082 27.9987 9.9591 27.9987 10.6663V19.9997C27.9987 20.7069 27.7177 21.3852 27.2176 21.8853C26.7176 22.3854 26.0393 22.6663 25.332 22.6663H11.9987C11.2915 22.6663 10.6132 22.3854 10.1131 21.8853C9.61298 21.3852 9.33203 20.7069 9.33203 19.9997V7.99967C9.33203 7.29243 9.61298 6.61415 10.1131 6.11406C10.6132 5.61396 11.2915 5.33301 11.9987 5.33301Z" stroke="#2592D9" stroke-width="2" stroke-linecap="round" stroke-linejoin="round"/>
<path id="Vector_2" d="M22.6667 22.666V25.3327C22.6667 26.0399 22.3857 26.7182 21.8856 27.2183C21.3855 27.7184 20.7072 27.9993 20 27.9993H6.66667C5.95942 27.9993 5.28115 27.7184 4.78105 27.2183C4.28095 26.7182 4 26.0399 4 25.3327V13.3327C4 12.6254 4.28095 11.9472 4.78105 11.4471C5.28115 10.947 5.95942 10.666 6.66667 10.666H9.33333" stroke="#2592D9" stroke-width="2" stroke-linecap="round" stroke-linejoin="round"/>
</g>
</g>
</svg>
