<svg width="33" height="32" viewBox="0 0 33 32" fill="none" xmlns="http://www.w3.org/2000/svg">
<g id="tabler:tools">
<g id="Group">
<path id="Vector" d="M19.5833 7.33308L24.9167 12.6664M4.25 27.9997H9.58333L26.9167 10.6664C27.6239 9.95917 28.0212 8.99995 28.0212 7.99975C28.0212 6.99956 27.6239 6.04033 26.9167 5.33308C26.2094 4.62584 25.2502 4.22852 24.25 4.22852C23.2498 4.22852 22.2906 4.62584 21.5833 5.33308L4.25 22.6664V27.9997Z" stroke="#2592D9" stroke-width="2" stroke-linecap="round" stroke-linejoin="round"/>
<path id="Vector_2" d="M16.25 10.6667L9.58333 4L4.25 9.33333L10.9167 16M9.58333 10.6667L7.58333 12.6667M21.5833 16L28.25 22.6667L22.9167 28L16.25 21.3333M21.5833 22.6667L19.5833 24.6667" stroke="#2592D9" stroke-width="2" stroke-linecap="round" stroke-linejoin="round"/>
</g>
</g>
</svg>
