<svg width="33" height="32" viewBox="0 0 33 32" fill="none" xmlns="http://www.w3.org/2000/svg">
<g id="tabler:hexagon-3d">
<g id="Group">
<path id="Vector" d="M26.6469 10.1133C26.4127 9.70296 26.0741 9.36198 25.6654 9.12495H25.6627H25.7027L17.7027 4.34629C17.2952 4.11858 16.8362 3.99902 16.3694 3.99902C15.9026 3.99902 15.4436 4.11858 15.0361 4.34629L7.03606 9.12362C6.1894 9.59429 5.66406 10.489 5.66406 11.461V20.2023C5.6642 20.6785 5.79143 21.1461 6.03261 21.5567C6.2738 21.9674 6.6202 22.3062 7.03606 22.5383L15.0361 27.6636C15.4321 27.8836 15.8777 27.999 16.3307 27.999C16.7838 27.999 17.2293 27.8836 17.6254 27.6636L25.6254 22.5383C26.4734 22.0663 26.9987 21.1716 26.9987 20.201V11.461C27.0025 10.9885 26.8811 10.5236 26.6469 10.1133ZM26.6469 10.1133L21.6654 13.333M16.3321 21.9996V27.9996M6.33206 9.99962L10.9987 13.333" stroke="#2592D9" stroke-width="2" stroke-linecap="round" stroke-linejoin="round"/>
<path id="Vector_2" d="M16.3333 10V16M16.3333 16L11 18.6667M16.3333 16L21.6667 18.6667" stroke="#2592D9" stroke-width="2" stroke-linecap="round" stroke-linejoin="round"/>
<path id="Vector_3" d="M16.3333 22L21.6667 18.6667V13.3333L16.3333 10L11 13.3333V18.6667L16.3333 22Z" stroke="#2592D9" stroke-width="2" stroke-linecap="round" stroke-linejoin="round"/>
</g>
</g>
</svg>
